<svg xmlns="http://www.w3.org/2000/svg" version="1.1" xmlns:xlink="http://www.w3.org/1999/xlink" xmlns:svgjs="http://svgjs.dev/svgjs" width="1000" height="623" viewBox="0 0 1000 623"><g transform="matrix(1,0,0,1,-0.6060606060606233,0.2522267206477977)"><svg viewBox="0 0 396 247" data-background-color="#d2d6dc" preserveAspectRatio="xMidYMid meet" height="623" width="1000" xmlns="http://www.w3.org/2000/svg" xmlns:xlink="http://www.w3.org/1999/xlink"><g id="tight-bounds" transform="matrix(1,0,0,1,0.2400000000000091,-0.09999999999999432)"><svg viewBox="0 0 395.52 247.2" height="247.2" width="395.52"><g><svg></svg></g><g><svg viewBox="0 0 395.52 247.2" height="247.2" width="395.52"><g mask="url(&quot;#609e479e-f3a2-488e-a38d-df4f1a06f750&quot;)"><g><path xmlns="http://www.w3.org/2000/svg" d="M159.447 236.539l-51.305 10.661c5.775-30.65 11.438-60.745 16.991-90.285v0c1.999-12.438 4.22-25.386 6.663-38.845 2.443-13.415 4.775-26.674 6.996-39.779 2.221-13.104 4.331-25.831 6.33-38.179 1.999-12.304 3.776-23.565 5.33-33.782v0l53.971-3.665c-3.776 15.547-7.485 31.761-11.127 48.641-3.687 16.88-7.085 33.315-10.195 49.306v0l32.982-3.664c3.109-15.769 5.886-31.05 8.329-45.842 2.443-14.748 5.664-30.006 9.662-45.776v0c5.108-0.888 10.772-1.599 16.991-2.132 6.219-0.577 11.994-1.088 17.324-1.532 5.33-0.444 9.839-0.844 13.526-1.2 3.642-0.311 5.464-0.466 5.463-0.466v0c-3.109 9.995-6.041 20.922-8.795 32.782-2.798 11.905-5.53 24.231-8.195 36.98-2.665 12.793-5.219 25.742-7.663 38.846-2.443 13.104-4.664 25.542-6.663 37.313v0c-4.886 28.207-9.439 57.08-13.659 86.62v0l-51.972 5.997c2.887-13.326 5.442-26.319 7.662-38.979v0c2.221-10.661 4.509-21.766 6.863-33.315 2.31-11.549 4.131-21.433 5.464-29.651v0l-32.316 2.998c-1.555 8.44-3.376 18.212-5.464 29.318-2.132 11.105-4.087 21.655-5.863 31.65v0c-2.443 11.994-4.886 23.987-7.33 35.98z" fill="#0e5e4f" fill-rule="nonzero" stroke="none" stroke-width="1" stroke-linecap="butt" stroke-linejoin="miter" stroke-miterlimit="10" stroke-dasharray="" stroke-dashoffset="0" font-family="none" font-weight="none" font-size="none" text-anchor="none" style="mix-blend-mode: normal" data-fill-palette-color="tertiary"></path></g></g><g transform="matrix(1,0,0,1,55.765411764705874,37.08)"><svg viewBox="0 0 283.98917647058823 173.04" height="173.04" width="283.98917647058823"><g><svg viewBox="0 0 283.98917647058823 173.04" height="173.04" width="283.98917647058823"><g><svg viewBox="0 0 283.98917647058823 173.04" height="173.04" width="283.98917647058823"><g><svg viewBox="0 0 283.98917647058823 173.04" height="173.04" width="283.98917647058823"><g id="textblocktransform"><svg viewBox="0 0 283.98917647058823 173.04" height="173.04" width="283.98917647058823" id="textblock"><g><svg viewBox="0 0 283.98917647058823 173.04" height="173.04" width="283.98917647058823"><g transform="matrix(1,0,0,1,0,0)"><svg width="283.98917647058823" viewBox="-2.5499999821186066 -40 70.75 43.5" height="173.04" data-palette-color="#0e5e4f"><path d="M8.15-1.5L0.45 0.1Q1.75-6.8 3-13.45L3-13.45Q3.45-16.25 4-19.28 4.55-22.3 5.05-25.25 5.55-28.2 6-30.98 6.45-33.75 6.8-36.05L6.8-36.05 14.9-36.6Q14.05-33.1 13.23-29.3 12.4-25.5 11.7-21.9L11.7-21.9 16.65-22.45Q17.35-26 17.9-29.33 18.45-32.65 19.35-36.2L19.35-36.2Q20.5-36.4 21.9-36.52 23.3-36.65 24.5-36.75 25.7-36.85 26.53-36.93 27.35-37 27.35-37L27.35-37Q26.65-34.75 26.03-32.08 25.4-29.4 24.8-26.53 24.2-23.65 23.65-20.7 23.1-17.75 22.65-15.1L22.65-15.1Q21.55-8.75 20.6-2.1L20.6-2.1 12.8-1.2Q13.45-4.2 13.95-7.05L13.95-7.05Q14.45-9.45 14.98-12.05 15.5-14.65 15.8-16.5L15.8-16.5 10.95-16.05Q10.6-14.15 10.13-11.65 9.65-9.15 9.25-6.9L9.25-6.9Q8.7-4.2 8.15-1.5L8.15-1.5ZM38.65-2.45L22.5 0.05 29.05-35.5 44.85-36.85Q44.5-35.75 44.25-34.6L44.25-34.6Q44-33.65 43.77-32.63 43.55-31.6 43.4-30.8L43.4-30.8Q42.9-30.75 41.97-30.73 41.05-30.7 40-30.68 38.95-30.65 37.87-30.65 36.8-30.65 36-30.65L36-30.65 34.25-21.7Q35.8-21.8 37.15-21.85L37.15-21.85Q38.25-21.9 39.4-21.9 40.55-21.9 41.1-21.95L41.1-21.95Q40.9-20.55 40.72-19.2 40.55-17.85 40.3-16.45L40.3-16.45Q39.8-16.4 38.67-16.38 37.55-16.35 36.4-16.3L36.4-16.3Q35.1-16.25 33.55-16.2L33.55-16.2 31.85-7 39.15-8.15 38.65-2.45ZM60.45-2.3Q60.35-2.25 59.75-2.1 59.15-1.95 58.25-1.7 57.34-1.45 56.27-1.15 55.2-0.85 54.17-0.55 53.15-0.25 52.25 0.03 51.35 0.3 50.85 0.5L50.85 0.5Q50.7-1.5 50.6-3.4L50.6-3.4Q50.5-5.05 50.37-6.7 50.25-8.35 50.2-9.45L50.2-9.45Q49.75-8.35 49.02-6.7 48.3-5.05 47.6-3.45L47.6-3.45Q46.75-1.6 45.85 0.3L45.85 0.3 37.35-0.45Q39.85-4.9 42.35-9.25 44.85-13.6 46.95-18.35L46.95-18.35Q46.65-20.6 46.37-22.35 46.1-24.1 45.75-25.8 45.4-27.5 45-29.23 44.6-30.95 44.2-33.15L44.2-33.15 52.2-36.45Q52.45-34.1 52.77-31.25 53.1-28.4 53.35-26L53.35-26Q54.5-28.5 55.62-31 56.75-33.5 57.95-35.95L57.95-35.95 65.2-34Q63.9-31.8 62.85-29.95 61.8-28.1 60.85-26.25 59.9-24.4 58.95-22.48 58-20.55 56.9-18.2L56.9-18.2Q57.2-16 57.59-14.05 58-12.1 58.47-10.2 58.95-8.3 59.42-6.38 59.9-4.45 60.45-2.3L60.45-2.3Z" opacity="1" transform="matrix(1,0,0,1,0,0)" fill="#0e5e4f" class="undefined-text-0" data-fill-palette-color="primary" id="text-0"></path></svg></g></svg></g></svg></g></svg></g></svg></g></svg></g></svg></g></svg></g><defs><mask id="609e479e-f3a2-488e-a38d-df4f1a06f750"><rect width="395.52" height="247.2" fill="white"></rect><g transform="matrix(1,0,0,1,55.765411764705874,37.08)" id="clone"><svg viewBox="0 0 283.98917647058823 173.04" height="173.04" width="283.98917647058823"><g><svg viewBox="0 0 283.98917647058823 173.04" height="173.04" width="283.98917647058823"><g><svg viewBox="0 0 283.98917647058823 173.04" height="173.04" width="283.98917647058823"><g><svg viewBox="0 0 283.98917647058823 173.04" height="173.04" width="283.98917647058823"><g id="SvgjsG1114"><svg viewBox="0 0 283.98917647058823 173.04" height="173.04" width="283.98917647058823" id="SvgjsSvg1113"><g><svg viewBox="0 0 283.98917647058823 173.04" height="173.04" width="283.98917647058823"><g transform="matrix(1,0,0,1,0,0)"><svg width="283.98917647058823" viewBox="-2.5499999821186066 -40 70.75 43.5" height="173.04" data-palette-color="#0e5e4f"><path d="M8.15-1.5L0.45 0.1Q1.75-6.8 3-13.45L3-13.45Q3.45-16.25 4-19.28 4.55-22.3 5.05-25.25 5.55-28.2 6-30.98 6.45-33.75 6.8-36.05L6.8-36.05 14.9-36.6Q14.05-33.1 13.23-29.3 12.4-25.5 11.7-21.9L11.7-21.9 16.65-22.45Q17.35-26 17.9-29.33 18.45-32.65 19.35-36.2L19.35-36.2Q20.5-36.4 21.9-36.52 23.3-36.65 24.5-36.75 25.7-36.85 26.53-36.93 27.35-37 27.35-37L27.35-37Q26.65-34.75 26.03-32.08 25.4-29.4 24.8-26.53 24.2-23.65 23.65-20.7 23.1-17.75 22.65-15.1L22.65-15.1Q21.55-8.75 20.6-2.1L20.6-2.1 12.8-1.2Q13.45-4.2 13.95-7.05L13.95-7.05Q14.45-9.45 14.98-12.05 15.5-14.65 15.8-16.5L15.8-16.5 10.95-16.05Q10.6-14.15 10.13-11.65 9.65-9.15 9.25-6.9L9.25-6.9Q8.7-4.2 8.15-1.5L8.15-1.5ZM38.65-2.45L22.5 0.05 29.05-35.5 44.85-36.85Q44.5-35.75 44.25-34.6L44.25-34.6Q44-33.65 43.77-32.63 43.55-31.6 43.4-30.8L43.4-30.8Q42.9-30.75 41.97-30.73 41.05-30.7 40-30.68 38.95-30.65 37.87-30.65 36.8-30.65 36-30.65L36-30.65 34.25-21.7Q35.8-21.8 37.15-21.85L37.15-21.85Q38.25-21.9 39.4-21.9 40.55-21.9 41.1-21.95L41.1-21.95Q40.9-20.55 40.72-19.2 40.55-17.85 40.3-16.45L40.3-16.45Q39.8-16.4 38.67-16.38 37.55-16.35 36.4-16.3L36.4-16.3Q35.1-16.25 33.55-16.2L33.55-16.2 31.85-7 39.15-8.15 38.65-2.45ZM60.45-2.3Q60.35-2.25 59.75-2.1 59.15-1.95 58.25-1.7 57.34-1.45 56.27-1.15 55.2-0.85 54.17-0.55 53.15-0.25 52.25 0.03 51.35 0.3 50.85 0.5L50.85 0.5Q50.7-1.5 50.6-3.4L50.6-3.4Q50.5-5.05 50.37-6.7 50.25-8.35 50.2-9.45L50.2-9.45Q49.75-8.35 49.02-6.7 48.3-5.05 47.6-3.45L47.6-3.45Q46.75-1.6 45.85 0.3L45.85 0.3 37.35-0.45Q39.85-4.9 42.35-9.25 44.85-13.6 46.95-18.35L46.95-18.35Q46.65-20.6 46.37-22.35 46.1-24.1 45.75-25.8 45.4-27.5 45-29.23 44.6-30.95 44.2-33.15L44.2-33.15 52.2-36.45Q52.45-34.1 52.77-31.25 53.1-28.4 53.35-26L53.35-26Q54.5-28.5 55.62-31 56.75-33.5 57.95-35.95L57.95-35.95 65.2-34Q63.9-31.8 62.85-29.95 61.8-28.1 60.85-26.25 59.9-24.4 58.95-22.48 58-20.55 56.9-18.2L56.9-18.2Q57.2-16 57.59-14.05 58-12.1 58.47-10.2 58.95-8.3 59.42-6.38 59.9-4.45 60.45-2.3L60.45-2.3Z" opacity="1" transform="matrix(1,0,0,1,0,0)" fill="#0e5e4f" class="undefined-text-0" data-fill-palette-color="primary" id="SvgjsPath1112" stroke-width="5" stroke="black" stroke-linejoin="round"></path></svg></g></svg></g></svg></g></svg></g></svg></g></svg></g></svg></g></mask></defs></svg><rect width="395.52" height="247.2" fill="none" stroke="none" visibility="hidden"></rect></g></svg></g></svg>